<svg xmlns="http://www.w3.org/2000/svg" viewBox="0 0 16 16" shape-rendering="crispEdges">
  <!-- Pixel globe for the NetCrawler browser -->
  <rect x="5" y="1" width="6" height="1" fill="#000"/><rect x="3" y="2" width="2" height="1" fill="#000"/><rect x="11" y="2" width="2" height="1" fill="#000"/>
  <rect x="2" y="3" width="1" height="2" fill="#000"/><rect x="13" y="3" width="1" height="2" fill="#000"/>
  <rect x="1" y="5" width="1" height="6" fill="#000"/><rect x="14" y="5" width="1" height="6" fill="#000"/>
  <rect x="2" y="11" width="1" height="2" fill="#000"/><rect x="13" y="11" width="1" height="2" fill="#000"/>
  <rect x="3" y="13" width="2" height="1" fill="#000"/><rect x="11" y="13" width="2" height="1" fill="#000"/><rect x="5" y="14" width="6" height="1" fill="#000"/>
  <rect x="5" y="2" width="6" height="12" fill="#1e6fd9"/><rect x="3" y="3" width="10" height="10" fill="#1e6fd9"/><rect x="2" y="5" width="12" height="6" fill="#1e6fd9"/>
  <rect x="4" y="4" width="3" height="2" fill="#2eb82e"/><rect x="3" y="6" width="3" height="2" fill="#2eb82e"/><rect x="5" y="8" width="2" height="3" fill="#2eb82e"/>
  <rect x="9" y="3" width="3" height="2" fill="#2eb82e"/><rect x="9" y="7" width="4" height="2" fill="#2eb82e"/><rect x="10" y="9" width="2" height="2" fill="#2eb82e"/>
  <rect x="6" y="3" width="1" height="1" fill="#9fd0ff"/><rect x="4" y="4" width="1" height="1" fill="#9fd0ff"/>
</svg>
