<!-- "About Me" icon: a pixel-art business card with a photo and text lines, 32x32 grid -->
<svg xmlns="http://www.w3.org/2000/svg" viewBox="0 0 32 32" width="32" height="32" shape-rendering="crispEdges">
  <rect x="2" y="7" width="29" height="20" fill="#404040"/>
  <rect x="1" y="6" width="28" height="20" fill="#000"/>
  <rect x="2" y="7" width="26" height="18" fill="#ffffff"/>
  <rect x="2" y="7" width="26" height="3" fill="#000080"/>
  <rect x="3" y="8" width="2" height="1" fill="#ff66cc"/>
  <rect x="4" y="11" width="9" height="11" fill="#000"/>
  <rect x="5" y="12" width="7" height="9" fill="#7ec8ff"/>
  <rect x="7" y="13" width="3" height="3" fill="#f2c79b"/>
  <rect x="6" y="12" width="5" height="1" fill="#5a3a1a"/><rect x="6" y="13" width="1" height="2" fill="#5a3a1a"/>
  <rect x="6" y="17" width="5" height="4" fill="#c2185b"/><rect x="8" y="16" width="1" height="1" fill="#f2c79b"/>
  <rect x="15" y="12" width="11" height="2" fill="#000"/>
  <rect x="15" y="15" width="9" height="1" fill="#808080"/>
  <rect x="15" y="18" width="11" height="1" fill="#a0a0a0"/>
  <rect x="15" y="20" width="8" height="1" fill="#a0a0a0"/>
  <rect x="15" y="22" width="10" height="1" fill="#a0a0a0"/>
</svg>
